<svg id="visual" viewBox="0 0 900 600" width="900" height="600" xmlns="http://www.w3.org/2000/svg" xmlns:xlink="http://www.w3.org/1999/xlink" version="1.1"><rect x="0" y="0" width="900" height="600" fill="#ffffff"></rect><path d="M0 433L15 433.7C30 434.3 60 435.7 90 428.8C120 422 150 407 180 404.5C210 402 240 412 270 423.2C300 434.3 330 446.7 360 452.7C390 458.7 420 458.3 450 456.3C480 454.3 510 450.7 540 442C570 433.3 600 419.7 630 424.2C660 428.7 690 451.3 720 449.8C750 448.3 780 422.7 810 422.3C840 422 870 447 885 459.5L900 472L900 601L885 601C870 601 840 601 810 601C780 601 750 601 720 601C690 601 660 601 630 601C600 601 570 601 540 601C510 601 480 601 450 601C420 601 390 601 360 601C330 601 300 601 270 601C240 601 210 601 180 601C150 601 120 601 90 601C60 601 30 601 15 601L0 601Z" fill="#0d6efd"></path><path d="M0 464L15 463.3C30 462.7 60 461.3 90 457.3C120 453.3 150 446.7 180 448.5C210 450.3 240 460.7 270 458.3C300 456 330 441 360 436.5C390 432 420 438 450 450.2C480 462.3 510 480.7 540 480.5C570 480.3 600 461.7 630 459.3C660 457 690 471 720 468.5C750 466 780 447 810 449C840 451 870 474 885 485.5L900 497L900 601L885 601C870 601 840 601 810 601C780 601 750 601 720 601C690 601 660 601 630 601C600 601 570 601 540 601C510 601 480 601 450 601C420 601 390 601 360 601C330 601 300 601 270 601C240 601 210 601 180 601C150 601 120 601 90 601C60 601 30 601 15 601L0 601Z" fill="#2856c9"></path><path d="M0 461L15 467.5C30 474 60 487 90 494.7C120 502.3 150 504.7 180 502.8C210 501 240 495 270 497.3C300 499.7 330 510.3 360 512C390 513.7 420 506.3 450 501.3C480 496.3 510 493.7 540 487C570 480.3 600 469.7 630 468.2C660 466.7 690 474.3 720 483.8C750 493.3 780 504.7 810 501.5C840 498.3 870 480.7 885 471.8L900 463L900 601L885 601C870 601 840 601 810 601C780 601 750 601 720 601C690 601 660 601 630 601C600 601 570 601 540 601C510 601 480 601 450 601C420 601 390 601 360 601C330 601 300 601 270 601C240 601 210 601 180 601C150 601 120 601 90 601C60 601 30 601 15 601L0 601Z" fill="#2a4098"></path><path d="M0 523L15 516.5C30 510 60 497 90 495C120 493 150 502 180 509.8C210 517.7 240 524.3 270 526.2C300 528 330 525 360 525.7C390 526.3 420 530.7 450 524.8C480 519 510 503 540 494.3C570 485.7 600 484.3 630 484.7C660 485 690 487 720 488.7C750 490.3 780 491.7 810 498.8C840 506 870 519 885 525.5L900 532L900 601L885 601C870 601 840 601 810 601C780 601 750 601 720 601C690 601 660 601 630 601C600 601 570 601 540 601C510 601 480 601 450 601C420 601 390 601 360 601C330 601 300 601 270 601C240 601 210 601 180 601C150 601 120 601 90 601C60 601 30 601 15 601L0 601Z" fill="#232b6b"></path><path d="M0 552L15 553.7C30 555.3 60 558.7 90 556C120 553.3 150 544.7 180 539C210 533.3 240 530.7 270 535.5C300 540.3 330 552.7 360 553.7C390 554.7 420 544.3 450 536.8C480 529.3 510 524.7 540 527.8C570 531 600 542 630 545.3C660 548.7 690 544.3 720 538.5C750 532.7 780 525.3 810 524.3C840 523.3 870 528.7 885 531.3L900 534L900 601L885 601C870 601 840 601 810 601C780 601 750 601 720 601C690 601 660 601 630 601C600 601 570 601 540 601C510 601 480 601 450 601C420 601 390 601 360 601C330 601 300 601 270 601C240 601 210 601 180 601C150 601 120 601 90 601C60 601 30 601 15 601L0 601Z" fill="#181941"></path><path d="M0 562L15 560C30 558 60 554 90 556.5C120 559 150 568 180 571.8C210 575.7 240 574.3 270 574.3C300 574.3 330 575.7 360 571.7C390 567.7 420 558.3 450 557.7C480 557 510 565 540 567.8C570 570.7 600 568.3 630 564.3C660 560.3 690 554.7 720 557.7C750 560.7 780 572.3 810 574C840 575.7 870 567.3 885 563.2L900 559L900 601L885 601C870 601 840 601 810 601C780 601 750 601 720 601C690 601 660 601 630 601C600 601 570 601 540 601C510 601 480 601 450 601C420 601 390 601 360 601C330 601 300 601 270 601C240 601 210 601 180 601C150 601 120 601 90 601C60 601 30 601 15 601L0 601Z" fill="#09001c"></path></svg>